<?xml version="1.0" encoding="utf-8"?>
<!-- Generator: Adobe Illustrator 19.0.0, SVG Export Plug-In . SVG Version: 6.00 Build 0)  -->
<svg version="1.1" id="Layer_1" xmlns="http://www.w3.org/2000/svg" xmlns:xlink="http://www.w3.org/1999/xlink" x="0px" y="0px"
	 viewBox="0 0 500 500" style="enable-background:new 0 0 500 500;" xml:space="preserve">
<style type="text/css">
	.st0{fill:#CF1820;}
	.st1{fill:#EC6525;}
	.st2{fill:#AF368C;}
</style>
<g id="XMLID_1_">
	<path id="XMLID_3_" d="M108.7,300.9c3.4,0,6.7,0,10.1,0c0,6.1,0,12.2,0,18.3c5.1,0,10.1,0,15.2,0c0-6,0-12.1,0-18.3
		c3.4,0,6.8,0,10.2,0c0,15.7,0,31.4,0,47.2c-3.4,0-6.7,0-10.1,0c0-6.6,0-13.1,0-19.7c-5.1,0-10.1,0-15.2,0c0,6.5,0,13,0,19.6
		c-3.4,0-6.8,0-10.2,0C108.7,332.4,108.7,316.7,108.7,300.9z"/>
	<path id="XMLID_4_" d="M170.8,348.1c0-15.7,0-31.4,0-47.2c3.3,0,6.6,0,10.1,0c0,6.9,0,13.8,0,21.1c0.3-0.4,0.4-0.5,0.5-0.7
		c3.9-6.6,7.8-13.3,11.7-19.9c0.2-0.3,0.6-0.6,0.9-0.6c3.8,0,7.7,0,11.7,0c-0.3,0.5-0.5,0.8-0.7,1.1c-4.2,6.1-8.5,12.1-12.7,18.2
		c-0.5,0.7-0.6,1.3-0.1,2.1c4.6,8.3,9.1,16.6,13.7,24.9c0.2,0.3,0.3,0.6,0.5,1c-2,0-3.8,0-5.6,0c-1.7,0-3.4,0-5.1,0
		c-0.7,0-1.1-0.2-1.5-0.9c-3.1-6.1-6.2-12.2-9.3-18.2c-0.2-0.3-0.3-0.6-0.5-1c-1.1,1.5-2.2,2.9-3.2,4.4c-0.2,0.3-0.2,0.8-0.2,1.2
		c0,4.4,0,8.8,0,13.2c0,0.4,0,0.8,0,1.3C177.5,348.1,174.2,348.1,170.8,348.1z"/>
	<path id="XMLID_7_" class="st0" d="M346.7,195.9c-0.1,0.1-0.2,0.1-0.3,0.2c-3.5,5.5-13.2,6-18.2-0.4c-2-2.7-3.2-5.7-3.5-9
		c-0.5-5.1,0-10,2.9-14.5c2.6-4,6.3-6.2,11.2-6.3c3.4,0,6.2,1.4,8.2,4.2c0.1,0.2,0.3,0.4,0.6,0.8c0.2-1.6,0.3-2.9,0.4-4.3
		c2.4,0,4.7,0,6.9,0c0,1.6,0,3.2,0,4.7c0,8.1,0,16.3,0,24.4c0,2.6-0.2,5.2-0.7,7.7c-1.1,6.1-4.8,9.8-10.9,11.1
		c-5.1,1.1-10.1,0.7-15-1.2c-0.8-0.3-1.1-0.7-0.8-1.6c0.6-1.7,1-3.4,1.4-5c2.1,0.6,4.1,1.4,6.2,1.8c1.6,0.3,3.3,0.3,4.9,0
		c3.9-0.7,6.3-3.6,6.6-7.9C346.7,199.2,346.7,197.6,346.7,195.9z M346.8,183.2c0,0-0.1,0-0.1,0c0-1.4,0-2.9,0-4.3
		c-0.1-3-2.2-5.6-4.9-6.3c-2.7-0.7-5.6,0.5-7,3.2c-2.6,4.8-2.6,9.8-0.3,14.7c1.3,2.7,4,4,6.8,3.6c2.7-0.4,4.8-2.5,5.3-5.4
		C346.7,186.9,346.7,185,346.8,183.2z"/>
	<path id="XMLID_10_" class="st1" d="M68.2,270.8c0.8-2.6,1.5-5.1,2.2-7.5c3.8-12.8,7.5-25.7,11.2-38.5c0.2-0.8,0.5-1.1,1.4-1.1
		c2.7,0.1,5.4,0,8.1,0c0.7,0,1,0.2,1.2,0.9c4.4,15.2,8.8,30.4,13.2,45.5c0,0.2,0,0.4,0.1,0.7c-1.8,0-3.5,0-5.2,0
		c-1.1,0-2.4,0.3-3.2-0.2c-0.7-0.5-0.7-1.9-1-2.9c-0.9-3-1.7-6-2.5-9c-0.2-0.7-0.5-1-1.3-1c-3.9,0-7.7,0-11.6,0c-0.7,0-1,0.3-1.2,1
		c-1,3.8-2,7.5-3.1,11.2c-0.1,0.3-0.5,0.8-0.8,0.8C73.3,270.9,70.8,270.8,68.2,270.8z M92.2,251.5c-1.8-7-3.6-13.9-5.4-20.8
		c-1.8,6.9-3.6,13.8-5.4,20.8C85,251.5,88.6,251.5,92.2,251.5z"/>
	<path id="XMLID_11_" d="M301.6,348.1c-3.4,0-6.7,0-10.1,0c0-0.4,0-0.8,0-1.2c0-6.1,0-12.2,0-18.4c0-1.1-0.2-2.3-0.5-3.4
		c-0.5-1.9-1.7-3.2-3.7-3.4c-2-0.3-3.7,0.5-4.7,2.2c-0.7,1.1-1.1,2.5-1.2,3.8c-0.1,6.4-0.1,12.8-0.1,19.1c0,0.4,0,0.8,0,1.3
		c-3.4,0-6.7,0-10.2,0c0-11.3,0-22.7,0-34.1c2.7,0,5.6,0,8.6,0c0.2,1.4,0.3,2.9,0.5,4c0.7-0.6,1.6-1.3,2.4-2
		c4.7-4.1,12.5-3.7,16.2,0.9c2,2.5,2.9,5.4,2.9,8.5c0.1,7.4,0.1,14.8,0.1,22.2C301.7,347.7,301.6,347.9,301.6,348.1z"/>
	<path id="XMLID_12_" class="st0" d="M162.3,200.5c0-16.5,0-32.9,0-49.3c2.7,0,5.4,0,8.2,0c0,6.5,0,13,0,19.9c0.5-0.5,0.7-0.8,0.9-1
		c3-3.6,8-5,12.4-3.4c3.8,1.4,5.6,4.5,6.5,8.2c0.3,1.4,0.5,2.8,0.5,4.2c0,6.9,0,13.7,0,20.6c0,0.3,0,0.5,0,0.9c-2.7,0-5.3,0-8.1,0
		c0-0.5,0-0.9,0-1.3c0-6.1,0-12.3,0-18.5c0-1.2-0.2-2.5-0.5-3.7c-0.6-2.2-1.8-3.9-4.3-4.3c-2.3-0.4-4.3,0.4-5.8,2.2
		c-1.1,1.3-1.6,2.7-1.6,4.4c0,6.6,0,13.2,0,19.8c0,0.4,0,0.8,0,1.3C167.8,200.5,165.1,200.5,162.3,200.5z"/>
	<path id="XMLID_15_" d="M242.5,330.8c0,2.8-0.5,5.6-1.5,8.2c-3,7.5-10.2,10.2-16.8,9.7c-5.5-0.5-9.8-3-12.5-8
		c-3.6-6.7-3-17.9,3.2-23.4c3.7-3.3,8.2-4.5,13-4.1c8.8,0.7,13.5,7.3,14.3,14.5C242.3,328.8,242.4,329.8,242.5,330.8z M232,330.3
		c-0.1-2.2-0.4-5-2-7.5c-0.9-1.4-2.2-2.1-3.9-2.1c-2.4,0-3.9,1.4-4.9,3.4c-1,2.1-1.3,4.3-1.3,6.6c0,2.7,0.2,5.3,1.5,7.7
		c0.7,1.3,1.6,2.3,3.1,2.8c2.5,0.8,4.8-0.4,6.1-3.2C231.7,335.8,232,333.4,232,330.3z"/>
	<path id="XMLID_16_" d="M79.2,309.7c-3.9,0-7.6,0-11.4,0c0-3,0-5.8,0-8.8c11,0,22,0,33.1,0c0,2.9,0,5.7,0,8.7c-3.8,0-7.5,0-11.5,0
		c0,12.9,0,25.6,0,38.4c-3.5,0-6.8,0-10.3,0C79.2,335.3,79.2,322.6,79.2,309.7z"/>
	<path id="XMLID_17_" class="st2" d="M223.1,231.4c-2-0.5-3.8-1.2-5.6-1.5c-2.7-0.3-5.6-0.6-8,1.3c-2.7,2-3.2,6-0.7,8.3
		c1.5,1.4,3.4,2.3,5.1,3.4c2.6,1.5,5.3,2.7,7.8,4.4c3.5,2.4,5.1,6.1,5,10.2c-0.1,5.4-2.3,10.2-9,12.7c-6,2.2-12.1,1.6-18-0.7
		c-0.8-0.3-1.1-0.8-0.9-1.7c0.5-1.8,0.9-3.5,1.3-5.2c2,0.7,4,1.5,6,1.8c2.3,0.3,4.8,0.4,7.1,0.1c2.7-0.4,4.6-2,5.2-4.9
		c0.6-2.8-0.3-5.1-2.6-6.7c-1.8-1.2-3.7-2.2-5.7-3.1c-3.3-1.5-6.4-3.3-8.6-6.3c-4.6-6.4-2.2-15.3,5.2-18.6c5.7-2.6,11.5-2.1,17.3,0
		c0.3,0.1,0.7,0.7,0.6,0.9C224.1,227.6,223.6,229.5,223.1,231.4z"/>
	<path id="XMLID_22_" class="st0" d="M234.6,183.8c0.1-4,0.8-7.9,3.1-11.2c3.5-5.1,8.6-7,14.6-6.5c8.3,0.7,13,7.2,13.7,14.9
		c0.4,4.5-0.1,8.8-2.3,12.7c-3,5.4-9.2,8.2-15.3,7.5c-7.6-0.9-12.5-6.5-13.5-13.9C234.8,186.1,234.7,185,234.6,183.8z M257.7,183.6
		c0-2.8-0.4-5.5-1.8-8c-2.6-4.7-8.2-4.8-10.9-0.2c-1.2,2.1-1.7,4.4-1.9,6.8c-0.2,3.3,0.1,6.4,1.7,9.4c0.8,1.6,2,2.9,3.8,3.5
		c2.8,0.9,5.6-0.3,7.2-3.2C257.3,189.2,257.8,186.5,257.7,183.6z"/>
	<path id="XMLID_30_" class="st0" d="M288.2,183.8c0.1-4.1,0.8-7.9,3.2-11.3c3.5-5.1,8.6-6.9,14.6-6.4c8.4,0.7,13,7.3,13.7,14.9
		c0.4,4.5-0.1,8.9-2.4,12.8c-3,5.3-9.2,8.1-15.3,7.4c-7.7-0.9-12.5-6.6-13.5-13.9C288.4,186.2,288.3,185,288.2,183.8z M311.3,183.6
		c0.1-2.7-0.4-5.4-1.6-7.8c-0.9-1.6-2-3-3.9-3.5c-3-0.9-5.9,0.4-7.3,3.5c-2.5,5.2-2.5,10.6,0.1,15.8c0.8,1.6,2,2.8,3.8,3.4
		c2.8,0.9,5.5-0.3,7.2-3.2C310.9,189.3,311.4,186.5,311.3,183.6z"/>
	<path id="XMLID_31_" class="st0" d="M207.7,200.6c-2.8,0-5.5,0-8.3,0c0-11.3,0-22.5,0-33.8c2.2,0,4.5,0,6.9,0
		c0.1,1.5,0.3,3,0.5,4.8c0.4-0.5,0.6-0.8,0.8-1.1c4.2-5.5,12.7-6.1,17.2-1.2c2.2,2.3,3.1,5.3,3.2,8.3c0.1,7.5,0.1,15,0.1,22.5
		c0,0.1,0,0.2-0.1,0.4c-2.6,0-5.3,0-8.1,0c0-0.5,0-0.9,0-1.3c0-6.2,0-12.4,0-18.6c0-1.1-0.2-2.3-0.4-3.4c-0.6-2.4-1.9-4.1-4.5-4.4
		c-2.5-0.3-4.5,0.6-5.9,2.7c-0.9,1.4-1.4,2.9-1.4,4.6c0,6.4,0,12.8,0,19.3C207.7,199.7,207.7,200.1,207.7,200.6z"/>
	<path id="XMLID_32_" class="st2" d="M320.3,241.3c0.9-0.8,1.9-1.6,2.9-2.3c4.4-3.6,11.5-3.6,15.3,0.8c1.7,1.9,2.5,4.2,2.9,6.7
		c0.2,1.2,0.2,2.5,0.2,3.7c0,6.4,0,12.9,0,19.3c0,1-0.3,1.3-1.3,1.3c-1.8-0.1-3.7-0.1-5.5,0c-0.9,0-1.2-0.3-1.2-1.2
		c0-6.3,0-12.6,0-18.9c0-1.1-0.2-2.3-0.5-3.4c-0.6-2.3-1.9-4-4.4-4.4c-2.6-0.4-4.7,0.5-6.1,2.7c-0.9,1.3-1.4,2.7-1.4,4.3
		c0,6.5,0,13.1,0,19.6c0,1-0.2,1.3-1.3,1.3c-1.9-0.1-3.8-0.1-5.6,0c-1,0-1.3-0.3-1.3-1.3c0-9.3,0-18.6,0-27.9c0-1.2-0.1-2.5-0.2-3.7
		c0-0.7,0.2-0.9,0.9-0.9c1.7,0,3.4,0,5.2,0c0.7,0,0.9,0.3,0.9,0.9C320.1,239.2,320.2,240.4,320.3,241.3z"/>
	<path id="XMLID_35_" class="st0" d="M364.2,215.7c-0.7-2.3-1.4-4.5-2-6.7c1.6-0.9,3.1-1.7,4.5-2.7c2-1.4,3.4-3.2,4.5-5.4
		c0.5-1,0.6-2,0.2-3c-3-8-5.9-15.9-8.8-23.9c-0.9-2.4-1.8-4.8-2.7-7.3c3.1,0,6,0,9,0c2.4,8.1,4.8,16.3,7.3,24.7
		c0.3-1.1,0.5-2,0.8-2.9c1.8-7,3.6-14.1,5.4-21.1c0.1-0.5,0.3-0.8,0.9-0.8c2.5,0,5.1,0,7.8,0c-0.3,0.9-0.5,1.7-0.8,2.5
		c-3.2,9.2-6.3,18.4-9.5,27.6c-1.6,4.5-3.5,8.8-6.6,12.5c-2.5,3.1-5.6,5.4-9.6,6.4C364.6,215.7,364.5,215.7,364.2,215.7z"/>
	<path id="XMLID_40_" class="st0" d="M106,185.7c-0.1,5.3,3.1,8.3,7,9c3.3,0.6,6.5,0.1,9.7-0.8c0.4-0.1,0.8-0.2,1.4-0.4
		c0.4,1.9,0.8,3.7,1.2,5.6c-2,1-4.2,1.4-6.4,1.8c-3,0.4-6.1,0.5-9.1-0.2c-5.3-1.2-9-4.4-10.7-9.6c-2-6.3-1.6-12.5,1.8-18.3
		c3.6-6,11.1-8.5,17.7-6c3.5,1.4,5.7,4,7,7.5c1.3,3.4,1.4,7,1.2,10.6c-0.1,0.9-0.6,0.8-1.2,0.8c-6.1,0-12.2,0-18.3,0
		C106.9,185.7,106.4,185.7,106,185.7z M105.6,179.9c4.8,0,9.2,0,13.7,0c-0.1-1-0.2-2-0.4-2.8c-0.6-2.6-1.9-4.6-4.7-5.2
		c-2.7-0.6-5.2,0.5-6.6,3C106.8,176.3,106.3,178,105.6,179.9z"/>
	<path id="XMLID_43_" class="st2" d="M384.7,255.9c-0.2,4.8,2.6,8.4,6.8,9.2c3.4,0.7,6.7,0.2,10-0.7c0.3-0.1,0.6-0.2,0.9-0.3
		c0.1,0,0.1,0,0.4,0c0.3,1.5,0.7,3.1,0.9,4.7c0,0.2-0.4,0.8-0.7,0.9c-1.9,0.5-3.8,1.1-5.8,1.4c-2.9,0.5-5.7,0.5-8.6-0.2
		c-5.9-1.4-9.6-5.1-11-10.9c-1.4-5.9-0.9-11.6,2.3-16.9c2.4-3.9,5.9-6.1,10.5-6.6c9.1-1,13.8,5,14.8,11.9c0.3,2,0.2,4,0.2,6.1
		c0,1.4-0.1,1.5-1.5,1.5c-6,0-12,0-18,0C385.6,255.9,385.2,255.9,384.7,255.9z M398,250.2c0.2-1.9-0.2-3.6-1-5.1
		c-0.8-1.6-2.1-2.7-3.8-3.1c-4.4-1-9.1,3.5-8.5,8.2C389.1,250.2,393.5,250.2,398,250.2z"/>
	<path id="XMLID_49_" class="st2" d="M285.7,255.9c-0.5,4.1,2.1,7.7,5.3,8.7c3.6,1.3,7.3,0.8,10.9-0.1c0.5-0.1,1.1-0.3,1.8-0.5
		c0.4,1.7,0.7,3.3,1,4.9c0,0.2-0.4,0.8-0.8,0.9c-1.9,0.5-3.8,1.1-5.8,1.4c-2.9,0.5-5.7,0.5-8.6-0.2c-5.9-1.4-9.6-5.1-11-10.9
		c-1.4-6-0.9-11.8,2.4-17.1c2.4-3.8,5.9-5.9,10.3-6.4c9.2-1.1,13.6,4.9,14.7,10.9c0.4,2.5,0.3,5,0.5,7.5c0,1-0.6,1-1.4,1
		c-6,0-12.1,0-18.1,0C286.5,255.9,286.1,255.9,285.7,255.9z M299,250.2c0.2-2-0.2-3.7-1.1-5.3c-0.8-1.5-2-2.5-3.7-2.9
		c-4.4-1-9.1,3.5-8.5,8.2C290.1,250.2,294.5,250.2,299,250.2z"/>
	<path id="XMLID_50_" class="st0" d="M99.6,153.5c0,2.4,0,4.6,0,7c-4,0-7.9,0-11.9,0c0,13.4,0,26.7,0,40c-2.8,0-5.5,0-8.3,0
		c0-13.3,0-26.6,0-39.9c-4,0-7.9,0-11.9,0c0-2.4,0-4.7,0-7.1C78.1,153.5,88.8,153.5,99.6,153.5z"/>
	<path id="XMLID_51_" d="M261,348.1c-3.4,0-6.7,0-10,0c0-16.5,0-32.9,0-49.4c3.3,0,6.6,0,10,0C261,315.1,261,331.6,261,348.1z"/>
	<path id="XMLID_54_" class="st1" d="M153.2,264.7c0,1.9,0,3.7,0,5.5c0,0.2-0.3,0.6-0.6,0.6c-3.1,0.7-6.3,1.1-9.4-0.2
		c-3.1-1.2-4.6-3.8-5-7c-0.3-2.3-0.2-4.7-0.3-7.1c0-4.2,0-8.3,0-12.5c0-1.1-0.3-1.4-1.4-1.3c-1.1,0.1-2.2,0-3.3,0c0-2,0-3.9,0-5.9
		c1.2,0,2.5,0,3.7,0c0.7,0,1-0.2,1-1c0-1.5,0-3,0-4.5c0-0.3,0.2-0.9,0.5-0.9c2.4-0.8,4.8-1.5,7.4-2.3c0,3,0,5.8,0,8.6
		c2.6,0,5.1,0,7.7,0c0,2,0,3.9,0,6c-2.1,0-4.3,0-6.4,0c-1,0-1.4,0.3-1.4,1.3c0,4.8,0,9.6,0,14.4c0,1.2,0.2,2.5,0.5,3.6
		c0.5,1.7,1.7,2.5,3.4,2.6C150.7,264.9,151.7,264.8,153.2,264.7z"/>
	<path id="XMLID_57_" class="st1" d="M159.1,263.7c2,0.6,3.9,1.4,5.8,1.7c1.4,0.2,3,0.1,4.4-0.1c1.5-0.2,2.5-1.3,2.8-2.9
		c0.3-1.6-0.2-3-1.5-3.9c-1-0.7-2.2-1.3-3.3-1.8c-1.6-0.9-3.3-1.6-4.8-2.6c-6.4-4.3-4.9-13.2,1.4-16.3c4.9-2.4,9.8-1.8,14.8,0.3
		c-0.6,1.9-1.1,3.8-1.6,5.7c-2.3-1.2-4.7-1.8-7.2-1.7c-2.7,0.2-4.5,2.5-3.5,4.8c0.3,0.8,1.1,1.5,1.8,2c1,0.7,2.2,1.1,3.3,1.7
		c1.1,0.5,2.2,1,3.2,1.6c3.7,2.1,5.7,5.3,5.3,9.7c-0.4,4.7-3.2,7.6-7.6,8.8c-4.6,1.3-9.2,0.9-13.6-0.9c-0.9-0.3-1.1-0.8-0.8-1.7
		C158.4,266.7,158.7,265.1,159.1,263.7z"/>
	<path id="XMLID_58_" class="st2" d="M411.8,263.8c2,0.6,3.7,1.3,5.6,1.6c1.5,0.2,3.1,0.1,4.6-0.1c1.5-0.2,2.6-1.3,2.8-2.8
		c0.3-1.6-0.1-3.1-1.6-4.1c-1.1-0.7-2.2-1.2-3.3-1.8c-1.7-0.9-3.6-1.8-5.2-2.9c-5.6-4-4.5-11.9,0.8-15.2c2.9-1.8,6-2.5,9.3-1.9
		c1.9,0.3,3.7,0.9,5.5,1.4c0.6,0.2,0.8,0.5,0.6,1.2c-0.5,1.5-0.9,3.1-1.4,4.7c-0.9-0.3-1.6-0.8-2.3-0.9c-1.8-0.3-3.5-0.6-5.3-0.6
		c-1.6,0-2.8,1-3.3,2.6c-0.4,1.4,0,2.8,1.4,3.7c1.2,0.8,2.6,1.4,3.9,2.1c1.8,1,3.6,1.8,5.2,3.1c5.2,4.1,4.3,13-2,16
		c-3,1.5-6.2,2-9.5,1.5c-2-0.3-4-0.9-6-1.4c-1.1-0.2-1.5-0.8-1.1-2C411.2,266.6,411.5,265.1,411.8,263.8z"/>
	<path id="XMLID_59_" class="st0" d="M156.7,167.4c-0.5,2.1-0.9,4.1-1.3,6c-1.7-0.3-3.4-0.8-5.1-0.8c-5.1-0.2-8.5,2.4-9.8,7.5
		c-0.8,3-0.7,6,0.5,8.9c1.6,4.1,5.7,6.4,10.1,5.8c1.4-0.2,2.8-0.6,4.3-0.9c0.3,1.9,0.7,3.9,1,6c-2.1,1-4.4,1.3-6.7,1.5
		c-3.6,0.3-7.1-0.2-10.3-2c-2.8-1.6-4.9-3.8-6.1-6.7c-2.5-6.1-2.5-12.2,0.6-18c2.6-5,7.1-7.6,12.6-8.3c3-0.4,5.8-0.1,8.7,0.7
		C155.8,167,156.2,167.2,156.7,167.4z"/>
	<path id="XMLID_60_" class="st2" d="M255.8,243.4c-1.8-0.2-3.5-0.6-5.2-0.7c-5.3-0.4-8.6,3.3-9.6,7.4c-0.7,3.1-0.7,6.2,0.5,9.2
		c1.8,4.6,6.1,6.4,10.5,5.8c1.3-0.2,2.5-0.5,3.9-0.8c0.1,0.3,0.2,0.7,0.3,1c0.2,1.2,0.4,2.3,0.7,3.5c0.2,0.9,0,1.4-1,1.6
		c-3,0.8-6,1.3-9.2,0.9c-2.9-0.3-5.6-1.1-7.9-2.9c-3.4-2.5-5.2-5.9-5.9-10c-0.8-4.8-0.5-9.3,1.9-13.6c2.8-5,7.3-7.6,12.9-8.3
		c2.8-0.4,5.5,0,8.2,0.7c1,0.2,1.4,0.6,1.1,1.7C256.3,240.4,256.1,242,255.8,243.4z"/>
	<path id="XMLID_61_" class="st2" d="M372.2,243.4c-1.9-0.2-3.6-0.6-5.3-0.7c-5.2-0.4-8.6,3.2-9.6,7.4c-0.9,4-0.8,7.9,1.7,11.3
		c2.3,3.2,5.6,4.1,9.3,3.6c1.3-0.2,2.5-0.5,3.9-0.8c0.2,0.9,0.3,1.9,0.5,2.8c0.5,3.3,1.3,2.9-2.5,3.8c-3.7,0.9-7.3,0.9-11-0.2
		c-4.3-1.4-7.4-4.1-9-8.3c-2.3-5.9-2.2-11.8,0.8-17.4c2.7-5.2,7.3-7.7,12.9-8.4c2.8-0.4,5.5,0,8.2,0.7c1,0.2,1.4,0.7,1,1.8
		C372.8,240.4,372.5,242,372.2,243.4z"/>
	<path id="XMLID_62_" class="st0" d="M273.1,151.2c2.7,0,5.4,0,8.1,0c0,16.4,0,32.9,0,49.4c-2.7,0-5.4,0-8.1,0
		C273.1,184.1,273.1,167.7,273.1,151.2z"/>
	<path id="XMLID_63_" class="st1" d="M111.6,237c2,0,4.1,0,6.1,0c0.8,0,0.7,0.6,0.8,1.1c0.1,1.4,0.2,2.8,0.2,4.3
		c0,0.2,0.1,0.4,0.2,0.7c2.1-4.5,5.2-7.3,10.5-6.6c0,2.7,0,5.2,0,7.7c-1.1,0-2.3-0.2-3.3,0c-3.7,0.7-6.3,3.8-6.3,7.5
		c0,5.9,0,11.8,0,17.7c0,0.5,0,0.9,0,1.4c-2.7,0-5.4,0-8.2,0C111.6,259.5,111.6,248.4,111.6,237z"/>
	<path id="XMLID_64_" class="st2" d="M262.8,253.9c0-5.2,0-10.4,0-15.6c0-1,0.3-1.3,1.3-1.3c1.9,0.1,3.8,0,5.7,0
		c0.8,0,1.1,0.2,1.1,1.1c0,10.6,0,21.1,0,31.7c0,0.8-0.3,1.1-1.1,1c-2,0-4,0-6,0c-0.9,0-1.1-0.3-1.1-1.2
		C262.8,264.4,262.8,259.1,262.8,253.9z"/>
	<path id="XMLID_65_" d="M214.2,304c0-2.7,2.1-4.7,4.8-4.7c2.6,0,4.6,2.1,4.6,4.8c0,2.8-2,4.8-4.7,4.8
		C216.2,308.9,214.2,306.8,214.2,304z"/>
	<path id="XMLID_66_" d="M228.4,304.2c0-2.8,1.9-4.8,4.7-4.8c2.6,0,4.6,2,4.6,4.7c0,2.8-2,4.9-4.6,4.9
		C230.3,309,228.4,307,228.4,304.2z"/>
	<path id="XMLID_67_" class="st2" d="M266.8,231.6c-2.2,0.1-4.3-1.4-4.4-4.4c-0.1-2.5,2.1-4.5,4.6-4.4c2.5,0,4.4,2,4.4,4.5
		C271.3,229.9,269.4,231.6,266.8,231.6z"/>
</g>
</svg>
